<svg xmlns="http://www.w3.org/2000/svg" xmlns:xlink="http://www.w3.org/1999/xlink" version="1.1" x="0px" y="0px" viewBox="0 0 91 113.75" enable-background="new 0 0 91 91" xml:space="preserve"><g><path d="M45.407,60.607c-0.939,0-1.7,0.762-1.7,1.701v8.766l-2.743-2.398c-0.708-0.619-1.781-0.547-2.399,0.16   c-0.618,0.707-0.546,1.781,0.161,2.398l5.562,4.865c0.083,0.072,0.182,0.107,0.274,0.162c0.016,0.01,0.029,0.021,0.044,0.029   c0.044,0.025,0.079,0.064,0.125,0.086c0.017,0.006,0.035,0.01,0.052,0.016c0.201,0.08,0.412,0.127,0.623,0.127c0,0,0,0,0.001,0   s0.001,0,0.001,0c0.211,0,0.423-0.047,0.624-0.127c0.016-0.006,0.034-0.01,0.051-0.016c0.045-0.021,0.08-0.061,0.125-0.086   c0.016-0.008,0.028-0.02,0.045-0.029c0.092-0.055,0.19-0.09,0.273-0.162l5.562-4.865c0.707-0.617,0.778-1.691,0.161-2.398   c-0.619-0.707-1.694-0.779-2.398-0.16l-2.743,2.398v-8.766C47.107,61.369,46.347,60.607,45.407,60.607z"/><path d="M58.925,48.365V30.43c0-5.568-4.531-10.1-10.102-10.1h-6.833c-5.569,0-10.101,4.531-10.101,10.1v17.936   c0,5.57,4.532,10.102,10.101,10.102h6.833C54.394,58.467,58.925,53.936,58.925,48.365z M55.524,48.365   c0,3.695-3.006,6.701-6.701,6.701h-6.833c-3.695,0-6.7-3.006-6.7-6.701V30.43c0-3.695,3.005-6.701,6.7-6.701h6.833   c3.695,0,6.701,3.006,6.701,6.701V48.365z"/><path d="M45.407,29.207c-0.939,0-1.7,0.76-1.7,1.699v4.65c0,0.939,0.761,1.699,1.7,1.699c0.939,0,1.7-0.76,1.7-1.699v-4.65   C47.107,29.967,46.347,29.207,45.407,29.207z"/></g></svg>